<?xml version="1.0" encoding="utf-8"?>
<!-- Generator: Adobe Illustrator 27.5.0, SVG Export Plug-In . SVG Version: 6.00 Build 0)  -->
<svg version="1.1" id="Layer_1" xmlns="http://www.w3.org/2000/svg" xmlns:xlink="http://www.w3.org/1999/xlink" x="0px" y="0px"
	 viewBox="0 0 1828.73 1609.76" style="enable-background:new 0 0 1828.73 1609.76;" xml:space="preserve">
<g>
	<defs>
		<path id="SVGID_1_" d="M1747.61,457.87c-104.41,104.54-273.71,104.54-378.13,0c-0.24-0.24-0.46-0.49-0.7-0.75
			c-0.19-0.03-0.39-0.07-0.58-0.12c-186.29-186.5-187.81-187.98-360.71-14.82c-49.04,58.65-122.7,95.97-205.07,95.97
			c-0.34,0-0.67-0.01-1.01-0.01c-0.16,0.1-0.33,0.21-0.49,0.33c-269.76,0-265.51,0-265.51,262.87c-0.16,0.06-0.31,0.12-0.48,0.18
			c0.02,1.46,0.1,2.89,0.1,4.35l0,0l0,0c0,0.34-0.01,0.67-0.01,1.01c0.1,0.18,0.21,0.33,0.33,0.51c0,270.09,0,265.84,262.55,265.84
			c0.06,0.16,0.12,0.31,0.18,0.48c1.46-0.03,2.89-0.12,4.35-0.12c147.68,0,267.39,119.86,267.39,267.72
			s-119.71,267.72-267.39,267.72c-147.67,0-267.39-119.86-267.39-267.72c0-4.01,0.13-7.99,0.31-11.95
			c-0.01-251.57-1.5-256.05-253.77-256.12l0,0c-4.61,0.24-9.25,0.36-13.94,0.36c-27.68,0-54.39-4.22-79.5-12.03
			c-8.38-2.61-16.57-5.62-24.58-9c-15.99-6.78-31.18-15.07-45.41-24.68c-18.62-12.61-35.53-27.53-50.41-44.28
			c-5.01-5.65-9.84-11.48-14.35-17.54C20.02,921.39,0.27,865.95,0.27,805.88c0-60.07,19.75-115.51,53.12-160.18
			c2.56-3.43,5.2-6.8,7.93-10.11c13.33-16.17,28.53-30.72,45.25-43.37c3.79-2.88,7.63-5.66,11.58-8.33
			c7.11-4.81,14.47-9.29,22.04-13.41c7.59-4.11,15.38-7.88,23.37-11.27c8-3.38,16.2-6.39,24.58-9c25.11-7.83,51.82-12.04,79.5-12.04
			c4.01,0,7.97,0.13,11.94,0.31c251.26-0.02,255.75-1.52,255.81-254.08l0,0c-4.32-73.69,21.57-148.84,77.8-205.13
			c104.42-104.56,273.72-104.56,378.15,0c2.83,2.83,5.54,5.74,8.23,8.66c177.68,177.89,181.9,179.99,360.32,1.46
			c3.1-3.44,6.29-6.81,9.6-10.12c104.42-104.56,273.72-104.56,378.13,0C1852.03,183.81,1852.03,353.32,1747.61,457.87
			L1747.61,457.87z"/>
	</defs>
	<use xlink:href="#SVGID_1_"  style="overflow:visible;fill-rule:evenodd;clip-rule:evenodd;fill:#22A6DF;"/>
	<clipPath id="SVGID_00000101080228947637929380000006056162653556147113_">
		<use xlink:href="#SVGID_1_"  style="overflow:visible;"/>
	</clipPath>
</g>
<g>
	<defs>
		<path id="SVGID_00000156566136180962980070000001372060439080704128_" d="M1158.94,538.16c147.68,0,267.39,119.86,267.39,267.72
			c0,147.85-119.71,267.72-267.39,267.72c-147.67,0-267.39-119.86-267.39-267.72C891.55,658.03,1011.26,538.16,1158.94,538.16
			L1158.94,538.16z"/>
	</defs>
	
		<use xlink:href="#SVGID_00000156566136180962980070000001372060439080704128_"  style="overflow:visible;fill-rule:evenodd;clip-rule:evenodd;fill:#103558;"/>
	<clipPath id="SVGID_00000116947100044794853590000016204641339187736992_">
		<use xlink:href="#SVGID_00000156566136180962980070000001372060439080704128_"  style="overflow:visible;"/>
	</clipPath>
</g>
</svg>
